<svg width="200" height="200" viewBox="0 0 200 200" fill="none" xmlns="http://www.w3.org/2000/svg">
<rect width="200" height="200" fill="#30BCED"/>
<path d="M186.591 49.8047C177.649 34.4845 165.519 22.3545 150.198 13.4124C134.874 4.4708 118.146 0.000900269 100.003 0.000900269C81.8602 0.000900269 65.1276 4.4708 49.807 13.4124C34.4854 22.3532 22.3554 34.4831 13.4129 49.8047C4.4699 65.1271 0 81.8597 0 100.001C0 118.143 4.47127 134.873 13.4115 150.197C22.3536 165.517 34.4836 177.647 49.8051 186.59C65.1276 195.53 81.8588 200 100.001 200C118.143 200 134.877 195.53 150.198 186.59C165.519 177.647 177.648 165.517 186.59 150.197C195.53 134.873 200 118.143 200 100.001C200 81.8579 195.53 65.1249 186.591 49.8047ZM176.695 132.357C172.267 142.644 166.344 151.5 158.923 158.921C151.502 166.34 142.646 172.265 132.359 176.691C122.072 181.121 111.288 183.334 100.003 183.334C88.7181 183.334 77.9335 181.117 67.646 176.691C57.3599 172.265 48.5044 166.34 41.0824 158.921C33.6627 151.498 27.7384 142.645 23.3095 132.357C18.8825 122.072 16.6683 111.284 16.6683 100.001C16.6683 88.7162 18.882 77.9316 23.3095 67.6442C27.7366 57.358 33.6609 48.504 41.0824 41.0806C48.5044 33.6609 57.3599 27.7361 67.646 23.3077C77.9321 18.882 88.7185 16.6683 100.003 16.6683C111.286 16.6683 122.074 18.8807 132.359 23.3077C142.646 27.7347 151.5 33.6595 158.923 41.0806C166.344 48.5026 172.267 57.3567 176.695 67.6442C181.123 77.9303 183.337 88.7149 183.337 100.001C183.339 111.286 181.123 122.073 176.695 132.357Z" fill="#FFFAFF"/>
<path d="M142.32 112.891C140.15 112.193 138.025 112.373 135.94 113.413C133.854 114.453 132.466 116.103 131.776 118.361C129.608 125.306 125.591 130.928 119.73 135.223C113.872 139.52 107.295 141.669 100.003 141.669C92.7123 141.669 86.1376 139.518 80.2772 135.223C74.4181 130.927 70.4034 125.306 68.233 118.361C67.5393 116.104 66.1711 114.453 64.132 113.413C62.092 112.374 59.9877 112.193 57.8173 112.891C55.5603 113.585 53.9116 114.952 52.869 116.99C51.8274 119.028 51.6531 121.138 52.3486 123.305C55.5589 133.812 61.5488 142.274 70.3163 148.698C79.0846 155.122 88.9803 158.331 100.004 158.331C111.027 158.331 120.925 155.122 129.693 148.698C138.455 142.271 144.446 133.812 147.657 123.305C148.356 121.138 148.182 119.028 147.139 116.99C146.093 114.952 144.486 113.588 142.32 112.891Z" fill="#FFFAFF"/>
<path d="M66.6682 83.3356C71.2676 83.3356 75.1962 81.7047 78.4516 78.4516C81.7074 75.1975 83.3351 71.269 83.3351 66.6682C83.3351 62.0669 81.7074 58.1402 78.4516 54.8848C75.1957 51.6294 71.2676 50.0008 66.6682 50.0008C62.0674 50.0008 58.1388 51.6294 54.8835 54.8848C51.6294 58.1407 50.0004 62.0674 50.0004 66.6682C50.0004 71.269 51.6276 75.1975 54.8835 78.4516C58.1402 81.706 62.0669 83.3356 66.6682 83.3356Z" fill="#FFFAFF"/>
<path d="M133.335 49.9999C128.734 49.9999 124.804 51.6285 121.548 54.8839C118.295 58.1397 116.664 62.0665 116.664 66.6673C116.664 71.2681 118.295 75.1966 121.548 78.4507C124.804 81.7056 128.734 83.3347 133.335 83.3347C137.933 83.3347 141.863 81.7038 145.118 78.4507C148.374 75.1966 150.002 71.2681 150.002 66.6673C150.002 62.066 148.374 58.1393 145.118 54.8839C141.863 51.6285 137.933 49.9999 133.335 49.9999Z" fill="#FFFAFF"/>
</svg>
